<svg width="375" height="250" viewBox="0 0 375 250" fill="none" xmlns="http://www.w3.org/2000/svg">
    <rect x="-0.315918" y="-10" width="375.316" height="260" fill="#ECECF4"/>
    <rect x="61.7363" y="-10" width="63.0531" height="65.52" fill="#111747"/>
    <rect x="61.7363" y="54.48" width="63.0531" height="65.52" fill="#FFC641"/>
    <rect x="185.841" y="-10" width="63.0531" height="65.52" fill="#06818E"/>
    <rect x="123.789" y="-10" width="63.0531" height="65.52" fill="#06818E"/>
    <rect x="61.7363" y="184.48" width="63.0531" height="65.52" fill="#FFC641"/>
    <rect x="-0.315918" y="-10" width="63.0531" height="65.52" fill="#111747"/>
    <rect x="61.7363" y="118.96" width="63.0531" height="65.52" fill="white"/>
    <path d="M123.789 -10H154.082C172.174 -10 186.842 4.66715 186.842 22.76V22.76C186.842 40.8528 172.174 55.52 154.082 55.52H123.789V-10Z" fill="#111747"/>
    <path d="M123.789 184.48H154.082C172.174 184.48 186.842 199.147 186.842 217.24V217.24C186.842 235.333 172.174 250 154.082 250H123.789V184.48Z" fill="#FE5E33"/>
    <path d="M123.789 118.96H154.082C172.174 118.96 186.842 133.627 186.842 151.72V151.72C186.842 169.813 172.174 184.48 154.082 184.48H123.789V118.96Z" fill="#2CB9B0"/>
    <path d="M-0.315918 216.007C-0.315918 198.595 13.799 184.48 31.2106 184.48V184.48C48.6222 184.48 62.7371 198.595 62.7371 216.007V250H-0.315918V216.007Z" fill="#FF87A2"/>
    <path fill-rule="evenodd" clip-rule="evenodd" d="M61.7363 -10H124.789C124.789 7.80566 110.674 22.24 93.2629 22.24C75.8512 22.24 61.7363 7.80566 61.7363 -10Z" fill="#06818E"/>
    <path d="M123.789 86.0065C123.789 68.5949 137.903 54.48 155.315 54.48H186.193C186.551 54.48 186.842 54.7704 186.842 55.1287V56.9469C186.842 91.7702 158.612 120 123.789 120V120V86.0065Z" fill="#2CB9B0"/>
    <path fill-rule="evenodd" clip-rule="evenodd" d="M124.789 120H61.7363C61.7363 102.194 75.8512 87.76 93.2629 87.76C110.674 87.76 124.789 102.194 124.789 120Z" fill="#06818E"/>
    <path fill-rule="evenodd" clip-rule="evenodd" d="M62.7371 54.48H-0.315918C-0.315918 36.6743 13.799 22.24 31.2106 22.24C48.6222 22.24 62.7371 36.6743 62.7371 54.48Z" fill="#FE5E33"/>
    <rect x="248.894" y="118.96" width="63.0531" height="65.52" fill="white"/>
    <rect x="248.894" y="184.48" width="63.0531" height="65.52" fill="#FE5E33"/>
    <rect x="-0.315918" y="54.48" width="63.0531" height="65.52" fill="#FFC641"/>
    <path d="M-0.315918 118.96H62.7371V152.953C62.7371 170.365 48.6222 184.48 31.2106 184.48V184.48C13.799 184.48 -0.315918 170.365 -0.315918 152.953V118.96Z" fill="#FFC641"/>
    <rect x="248.894" y="-10" width="63.0531" height="65.52" fill="#FE5E33"/>
    <rect x="311.947" y="-10" width="63.0531" height="65.52" fill="#2CB9B0"/>
    <rect x="248.894" y="54.48" width="63.0531" height="65.52" fill="#FE5E33"/>
    <path d="M248.894 54.48H279.187C297.28 54.48 311.947 69.1471 311.947 87.24V119.479C311.947 119.767 311.714 120 311.426 120V120C276.891 120 248.894 92.0035 248.894 57.468V54.48Z" fill="#111747"/>
    <path fill-rule="evenodd" clip-rule="evenodd" d="M248.894 55.52C231.759 55.52 217.868 40.8528 217.868 22.76C217.868 4.66715 231.759 -10 248.894 -10V55.52Z" fill="#2CB9B0"/>
    <path fill-rule="evenodd" clip-rule="evenodd" d="M248.894 55.52V-10C266.029 -10 279.92 4.66715 279.92 22.76C279.92 40.8528 266.029 55.52 248.894 55.52Z" fill="#2CB9B0"/>
    <path d="M311.947 118.96H342.24C360.333 118.96 375 133.627 375 151.72V151.72C375 169.813 360.333 184.48 342.24 184.48H311.947V118.96Z" fill="#2CB9B0"/>
    <path fill-rule="evenodd" clip-rule="evenodd" d="M311.947 184.48C294.812 184.48 280.921 169.813 280.921 151.72C280.921 133.627 294.812 118.96 311.947 118.96V184.48Z" fill="#2CB9B0"/>
    <rect x="185.841" y="118.96" width="63.0531" height="65.52" rx="31.5265" fill="#FFC641"/>
    <rect x="311.947" y="54.48" width="63.0531" height="65.52" fill="#FF87A2"/>
    <path d="M185.841 87.24C185.841 69.1471 200.508 54.48 218.601 54.48H248.894V120H218.601C200.508 120 185.841 105.333 185.841 87.24V87.24Z" fill="#FF87A2"/>
    <path fill-rule="evenodd" clip-rule="evenodd" d="M123.789 -10H186.842C186.842 7.80566 172.727 22.24 155.315 22.24C137.903 22.24 123.789 7.80566 123.789 -10Z" fill="#FE5E33"/>
    <path fill-rule="evenodd" clip-rule="evenodd" d="M187.842 -10C204.978 -10 218.868 4.43434 218.868 22.24C201.733 22.24 187.842 7.80566 187.842 -10Z" fill="#2CB9B0"/>
    <path fill-rule="evenodd" clip-rule="evenodd" d="M311.947 55.52C311.947 73.3257 298.056 87.76 280.921 87.76C280.921 69.9544 294.812 55.52 311.947 55.52Z" fill="#FFC641"/>
    <path fill-rule="evenodd" clip-rule="evenodd" d="M61.7363 54.48C61.7363 36.6743 75.6272 22.24 92.7624 22.24C92.7624 40.0457 78.8716 54.48 61.7363 54.48Z" fill="white"/>
    <path fill-rule="evenodd" clip-rule="evenodd" d="M171.328 180.32C162.055 174.611 155.815 163.941 155.815 151.72C155.815 139.499 162.055 128.829 171.328 123.12C180.602 128.829 186.842 139.499 186.842 151.72C186.842 163.941 180.602 174.611 171.328 180.32V180.32Z" fill="#111747"/>
    <rect x="311.947" y="-10" width="63.0531" height="65.52" rx="31.5265" fill="#111747"/>
    <rect x="-0.315918" y="118.96" width="63.0531" height="65.52" rx="31.5265" fill="#2CB9B0"/>
    <rect x="-0.315918" y="54.48" width="63.0531" height="65.52" rx="31.5265" fill="#FE5E33"/>
    <path fill-rule="evenodd" clip-rule="evenodd" d="M343.474 6.64001C352.041 6.64001 358.987 13.8572 358.987 22.76C358.987 31.6628 352.041 38.88 343.474 38.88C334.906 38.88 327.96 31.6628 327.96 22.76C327.96 13.8572 334.906 6.64001 343.474 6.64001Z" fill="#FFC641"/>
    <path fill-rule="evenodd" clip-rule="evenodd" d="M31.2108 6.64001C39.7784 6.64001 46.7239 13.8572 46.7239 22.76C46.7239 31.6628 39.7784 38.88 31.2108 38.88C22.6432 38.88 15.6978 31.6628 15.6978 22.76C15.6978 13.8572 22.6432 6.64001 31.2108 6.64001Z" fill="#FFC641"/>
    <path fill-rule="evenodd" clip-rule="evenodd" d="M93.2631 135.6C101.831 135.6 108.776 142.817 108.776 151.72C108.776 160.623 101.831 167.84 93.2631 167.84C84.6954 167.84 77.75 160.623 77.75 151.72C77.75 142.817 84.6954 135.6 93.2631 135.6Z" fill="#FE5E33"/>
    <path fill-rule="evenodd" clip-rule="evenodd" d="M155.315 71.12C163.883 71.12 170.828 78.3372 170.828 87.24C170.828 96.1428 163.883 103.36 155.315 103.36C146.748 103.36 139.802 96.1428 139.802 87.24C139.802 78.3372 146.748 71.12 155.315 71.12Z" fill="#FE5E33"/>
    <path fill-rule="evenodd" clip-rule="evenodd" d="M217.368 71.12C225.935 71.12 232.881 78.3372 232.881 87.24C232.881 96.1428 225.935 103.36 217.368 103.36C208.8 103.36 201.854 96.1428 201.854 87.24C201.854 78.3372 208.8 71.12 217.368 71.12Z" fill="#2CB9B0"/>
    <path fill-rule="evenodd" clip-rule="evenodd" d="M343.474 135.6C352.041 135.6 358.987 142.817 358.987 151.72C358.987 160.623 352.041 167.84 343.474 167.84C334.906 167.84 327.96 160.623 327.96 151.72C327.96 142.817 334.906 135.6 343.474 135.6Z" fill="#FE5E33"/>
    <path fill-rule="evenodd" clip-rule="evenodd" d="M217.868 216.72C217.868 198.914 231.759 184.48 248.894 184.48C248.894 202.286 235.003 216.72 217.868 216.72Z" fill="#111747"/>
    <path fill-rule="evenodd" clip-rule="evenodd" d="M375 184.48C375 202.573 360.885 217.24 343.474 217.24C343.474 199.147 357.589 184.48 375 184.48ZM311.947 250C311.947 231.907 326.062 217.24 343.473 217.24C343.473 235.333 329.358 250 311.947 250ZM343.474 217.24C326.062 217.24 311.947 202.573 311.947 184.48C329.359 184.48 343.474 199.147 343.474 217.24ZM343.474 217.24C360.885 217.24 375 231.907 375 250C357.589 250 343.474 235.333 343.474 217.24Z" fill="#2CB9B0"/>
    <path fill-rule="evenodd" clip-rule="evenodd" d="M155.816 87.76C155.816 105.566 141.925 120 124.79 120C124.79 102.194 138.68 87.76 155.816 87.76Z" fill="#06818E"/>
    <path fill-rule="evenodd" clip-rule="evenodd" d="M62.7374 87.76C62.7374 105.853 48.6225 120.52 31.2109 120.52C31.2109 102.427 45.3258 87.76 62.7374 87.76ZM-0.315773 153.28C-0.315773 135.187 13.7991 120.52 31.2108 120.52C31.2108 138.613 17.0958 153.28 -0.315773 153.28ZM31.2106 120.52C13.799 120.52 -0.315918 105.853 -0.315918 87.76C17.0957 87.76 31.2106 102.427 31.2106 120.52ZM31.2109 120.52C48.6225 120.52 62.7374 135.187 62.7374 153.28C45.3258 153.28 31.2109 138.613 31.2109 120.52Z" fill="#2CB9B0"/>
</svg>
